<?xml version="1.0" standalone="no"?>
<!DOCTYPE svg PUBLIC "-//W3C//DTD SVG 20010904//EN"
 "http://www.w3.org/TR/2001/REC-SVG-20010904/DTD/svg10.dtd">
<svg version="1.0" xmlns="http://www.w3.org/2000/svg"
 width="700.000000pt" height="700.000000pt" viewBox="0 0 700.000000 700.000000"
 preserveAspectRatio="xMidYMid meet">
<metadata>
Created by potrace 1.14, written by Peter Selinger 2001-2017
</metadata>
<g transform="translate(0.000000,700.000000) scale(0.100000,-0.100000)"
fill="#000000" stroke="none">
<path d="M0 6135 c0 -817 1 -865 18 -866 9 0 203 0 430 -1 395 0 412 -1 407
-18 -3 -10 -195 -396 -425 -857 -231 -461 -420 -843 -420 -848 0 -7 573 -10
1728 -10 l1727 0 -1 860 c-1 473 -2 863 -3 866 0 4 -189 7 -418 7 -230 0 -424
1 -430 1 -7 1 176 378 417 861 237 473 430 862 430 865 0 3 -778 5 -1730 5
l-1730 0 0 -865z"/>
<path d="M3537 6993 c-9 -19 2 -1873 11 -1943 11 -76 12 -85 33 -175 54 -240
175 -493 332 -690 104 -130 303 -305 448 -393 178 -109 429 -205 594 -228 17
-3 40 -7 52 -9 81 -18 313 -24 437 -11 266 27 518 115 753 262 48 31 90 59 93
62 3 4 30 26 60 48 121 90 290 280 384 431 118 189 209 426 241 628 4 22 9 51
12 65 3 14 8 460 10 993 l4 967 -1730 0 c-951 0 -1732 -3 -1734 -7z"/>
<path d="M5178 3465 c-2 -2 -34 -5 -73 -9 -38 -3 -108 -13 -155 -22 -47 -9
-95 -18 -108 -20 -132 -25 -433 -165 -582 -271 -117 -84 -296 -260 -379 -372
-99 -134 -181 -284 -234 -426 -30 -80 -73 -233 -81 -285 -3 -19 -8 -46 -11
-60 -18 -88 -25 -303 -13 -415 14 -137 20 -171 48 -280 141 -549 532 -986
1065 -1192 49 -19 96 -37 105 -38 8 -2 50 -13 94 -24 43 -11 99 -23 125 -27
25 -3 73 -9 106 -14 67 -9 357 -6 424 5 35 6 170 36 266 60 104 26 305 122
445 212 418 271 705 734 767 1238 10 77 10 320 1 405 -64 581 -434 1103 -964
1360 -92 45 -274 112 -334 124 -14 2 -46 9 -71 15 -25 6 -61 12 -80 15 -19 2
-56 7 -84 11 -49 6 -272 14 -277 10z"/>
<path d="M0 1732 l0 -1732 1733 0 1732 0 0 1730 c0 952 -1 1730 -2 1730 -2 0
-390 -387 -863 -860 -473 -473 -863 -860 -867 -860 -5 0 -396 388 -870 862
l-863 863 0 -1733z"/>
</g>
</svg>
